<svg xmlns="http://www.w3.org/2000/svg" xmlns:xlink="http://www.w3.org/1999/xlink" version="1.1" x="0px" y="0px" viewBox="0 0 100 125" style="enable-background:new 0 0 100 100;" xml:space="preserve"><g><path d="M50,7.7c-13.8,0-25,11.2-25,25v32.6c0,3.2,2.6,5.8,5.8,5.8H43v14.2c0,3.8,3.1,7,7,7s7-3.1,7-7V71.1h12.1   c3.2,0,5.8-2.6,5.8-5.8V32.7C75,18.9,63.8,7.7,50,7.7z M53.1,85.3c0,1.7-1.4,3.1-3.1,3.1c-1.7,0-3.1-1.4-3.1-3.1V71.1h6.1V85.3z"/></g><text x="0" y="115" fill="#000000" font-size="5px" font-weight="bold" font-family="'Helvetica Neue', Helvetica, Arial-Unicode, Arial, Sans-serif">Created by mikicon</text><text x="0" y="120" fill="#000000" font-size="5px" font-weight="bold" font-family="'Helvetica Neue', Helvetica, Arial-Unicode, Arial, Sans-serif">from the Noun Project</text></svg>